# xmcd
#
# Track frame offsets:
#	151
#	13270
#	28814
#	42651
#	56039
#	73477
#	94412
#	99858
#	116746
#	130708
#	148348
#
# Disc length: 2381 seconds
#
# Revision: 1
# Processed by: cddbd v1.5.1PL2 Copyright (c) Steve Scherf et al.
# Submitted via: audiograbber 1.83.01
#
DISCID=ac094b0b
DTITLE=Stillhouse - Through the Winter
DYEAR=2005
DGENRE=
TTITLE0=Waiting to See
TTITLE1=The Man Who Started It All
TTITLE2=Baby, You Ain't Done Much
TTITLE3=Changes
TTITLE4=To Be Denied
TTITLE5=It's the Shame
TTITLE6=Interlude
TTITLE7=City Girl
TTITLE8=I Wrote You a Letter
TTITLE9=Home
TTITLE10=Sold American
EXTD=
EXTT0=
EXTT1=
EXTT2=
EXTT3=
EXTT4=
EXTT5=
EXTT6=
EXTT7=
EXTT8=
EXTT9=
EXTT10=
PLAYORDER=
